<svg id="SvgjsSvg1006" width="1102.5" height="637" xmlns="http://www.w3.org/2000/svg" version="1.1" xmlns:xlink="http://www.w3.org/1999/xlink" xmlns:svgjs="http://svgjs.com/svgjs"><defs id="SvgjsDefs1007"><marker id="SvgjsMarker1034" markerWidth="16" markerHeight="12" refX="16" refY="6" viewBox="0 0 16 12" orient="auto" markerUnits="userSpaceOnUse"><path id="SvgjsPath1035" d="M0,2 L14,6 L0,11 L0,2" fill="#323232" stroke="#323232" stroke-width="2"></path></marker><marker id="SvgjsMarker1038" markerWidth="16" markerHeight="12" refX="16" refY="6" viewBox="0 0 16 12" orient="auto" markerUnits="userSpaceOnUse"><path id="SvgjsPath1039" d="M0,2 L14,6 L0,11 L0,2" fill="#323232" stroke="#323232" stroke-width="2"></path></marker><marker id="SvgjsMarker1042" markerWidth="16" markerHeight="12" refX="16" refY="6" viewBox="0 0 16 12" orient="auto" markerUnits="userSpaceOnUse"><path id="SvgjsPath1043" d="M0,2 L14,6 L0,11 L0,2" fill="#323232" stroke="#323232" stroke-width="2"></path></marker><marker id="SvgjsMarker1052" markerWidth="16" markerHeight="12" refX="16" refY="6" viewBox="0 0 16 12" orient="auto" markerUnits="userSpaceOnUse"><path id="SvgjsPath1053" d="M0,2 L14,6 L0,11 L0,2" fill="#323232" stroke="#323232" stroke-width="2"></path></marker><marker id="SvgjsMarker1056" markerWidth="16" markerHeight="12" refX="16" refY="6" viewBox="0 0 16 12" orient="auto" markerUnits="userSpaceOnUse"><path id="SvgjsPath1057" d="M0,2 L14,6 L0,11 L0,2" fill="#323232" stroke="#323232" stroke-width="2"></path></marker><marker id="SvgjsMarker1066" markerWidth="16" markerHeight="12" refX="16" refY="6" viewBox="0 0 16 12" orient="auto" markerUnits="userSpaceOnUse"><path id="SvgjsPath1067" d="M0,2 L14,6 L0,11 L0,2" fill="#323232" stroke="#323232" stroke-width="2"></path></marker><marker id="SvgjsMarker1076" markerWidth="16" markerHeight="12" refX="16" refY="6" viewBox="0 0 16 12" orient="auto" markerUnits="userSpaceOnUse"><path id="SvgjsPath1077" d="M0,2 L14,6 L0,11 L0,2" fill="#323232" stroke="#323232" stroke-width="2"></path></marker><marker id="SvgjsMarker1086" markerWidth="16" markerHeight="12" refX="16" refY="6" viewBox="0 0 16 12" orient="auto" markerUnits="userSpaceOnUse"><path id="SvgjsPath1087" d="M0,2 L14,6 L0,11 L0,2" fill="#323232" stroke="#323232" stroke-width="2"></path></marker><marker id="SvgjsMarker1090" markerWidth="16" markerHeight="12" refX="16" refY="6" viewBox="0 0 16 12" orient="auto" markerUnits="userSpaceOnUse"><path id="SvgjsPath1091" d="M0,2 L14,6 L0,11 L0,2" fill="#323232" stroke="#323232" stroke-width="2"></path></marker><marker id="SvgjsMarker1094" markerWidth="16" markerHeight="12" refX="16" refY="6" viewBox="0 0 16 12" orient="auto" markerUnits="userSpaceOnUse"><path id="SvgjsPath1095" d="M0,2 L14,6 L0,11 L0,2" fill="#323232" stroke="#323232" stroke-width="2"></path></marker><marker id="SvgjsMarker1104" markerWidth="16" markerHeight="12" refX="16" refY="6" viewBox="0 0 16 12" orient="auto" markerUnits="userSpaceOnUse"><path id="SvgjsPath1105" d="M0,2 L14,6 L0,11 L0,2" fill="#323232" stroke="#323232" stroke-width="2"></path></marker><marker id="SvgjsMarker1114" markerWidth="16" markerHeight="12" refX="16" refY="6" viewBox="0 0 16 12" orient="auto" markerUnits="userSpaceOnUse"><path id="SvgjsPath1115" d="M0,2 L14,6 L0,11 L0,2" fill="#323232" stroke="#323232" stroke-width="2"></path></marker></defs><g id="SvgjsG1008" transform="translate(285,163.99999999999994)"><path id="SvgjsPath1009" d="M 0 0L 193 0L 193 52L 0 52Z" stroke="#323232" stroke-width="2" fill-opacity="1" fill="#ffffff"></path><g id="SvgjsG1010"><text id="SvgjsText1011" font-family="微软雅黑" text-anchor="middle" font-size="13px" width="105" fill="#323232" font-weight="400" align="middle" anchor="middle" family="微软雅黑" size="13px" weight="400" font-style="" y="16.05" transform="rotate(0)"><tspan id="SvgjsTspan1012" dy="16" x="96.5"><tspan id="SvgjsTspan1013" style="text-decoration:;">SecurityManager</tspan></tspan></text></g></g><g id="SvgjsG1014" transform="translate(45,277)"><path id="SvgjsPath1015" d="M 0 0L 159 0L 159 53L 0 53Z" stroke="#323232" stroke-width="2" fill-opacity="1" fill="#ffffff"></path><g id="SvgjsG1016"><text id="SvgjsText1017" font-family="微软雅黑" text-anchor="middle" font-size="13px" width="90" fill="#323232" font-weight="400" align="middle" anchor="middle" family="微软雅黑" size="13px" weight="400" font-style="" y="16.55" transform="rotate(0)"><tspan id="SvgjsTspan1018" dy="16" x="79.5"><tspan id="SvgjsTspan1019" style="text-decoration:;">AccountRealm</tspan></tspan></text></g></g><g id="SvgjsG1020" transform="translate(289,277)"><path id="SvgjsPath1021" d="M 0 0L 185 0L 185 53L 0 53Z" stroke="#323232" stroke-width="2" fill-opacity="1" fill="#ffffff"></path><g id="SvgjsG1022"><text id="SvgjsText1023" font-family="微软雅黑" text-anchor="middle" font-size="13px" width="94" fill="#323232" font-weight="400" align="middle" anchor="middle" family="微软雅黑" size="13px" weight="400" font-style="" y="16.55" transform="rotate(0)"><tspan id="SvgjsTspan1024" dy="16" x="92.5"><tspan id="SvgjsTspan1025" style="text-decoration:;">CacheManager</tspan></tspan></text></g></g><g id="SvgjsG1026" transform="translate(618,278)"><path id="SvgjsPath1027" d="M 0 0L 187 0L 187 53L 0 53Z" stroke="#323232" stroke-width="2" fill-opacity="1" fill="#ffffff"></path><g id="SvgjsG1028"><text id="SvgjsText1029" font-family="微软雅黑" text-anchor="middle" font-size="13px" width="102" fill="#323232" font-weight="400" align="middle" anchor="middle" family="微软雅黑" size="13px" weight="400" font-style="" y="16.55" transform="rotate(0)"><tspan id="SvgjsTspan1030" dy="16" x="93.5"><tspan id="SvgjsTspan1031" style="text-decoration:;">SessionManager</tspan></tspan></text></g></g><g id="SvgjsG1032"><path id="SvgjsPath1033" d="M381.5 216L381.5 246.5L124.5 246.5L124.5 277" stroke="#323232" stroke-width="2" fill="none" marker-end="url(#SvgjsMarker1034)"></path></g><g id="SvgjsG1036"><path id="SvgjsPath1037" d="M381.5 216L381.5 246.5L381.5 246.5L381.5 277" stroke="#323232" stroke-width="2" fill="none" marker-end="url(#SvgjsMarker1038)"></path></g><g id="SvgjsG1040"><path id="SvgjsPath1041" d="M381.5 216L381.5 247L711.5 247L711.5 278" stroke="#323232" stroke-width="2" fill="none" marker-end="url(#SvgjsMarker1042)"></path></g><g id="SvgjsG1044" transform="translate(25,410.75)"><path id="SvgjsPath1045" d="M 0 0L 198 0L 198 51L 0 51Z" stroke="#323232" stroke-width="2" fill-opacity="1" fill="#ffffff"></path><g id="SvgjsG1046"><text id="SvgjsText1047" font-family="微软雅黑" text-anchor="middle" font-size="13px" width="168" fill="#323232" font-weight="400" align="middle" anchor="middle" family="微软雅黑" size="13px" weight="400" font-style="" y="15.55" transform="rotate(0)"><tspan id="SvgjsTspan1048" dy="16" x="99"><tspan id="SvgjsTspan1049" style="text-decoration:;">HashedCredentialsMatcher</tspan></tspan></text></g></g><g id="SvgjsG1050"><path id="SvgjsPath1051" d="M124.5 330L124.5 370.375L124 370.375L124 410.75" stroke="#323232" stroke-width="2" fill="none" marker-end="url(#SvgjsMarker1052)"></path></g><g id="SvgjsG1054"><path id="SvgjsPath1055" d="M204 303.5L246.5 303.5L246.5 303.5L289 303.5" stroke="#323232" stroke-width="2" fill="none" marker-end="url(#SvgjsMarker1056)"></path></g><g id="SvgjsG1058" transform="translate(876.5,190.99999999999994)"><path id="SvgjsPath1059" d="M 0 0L 171 0L 171 54L 0 54Z" stroke="#323232" stroke-width="2" fill-opacity="1" fill="#ffffff"></path><g id="SvgjsG1060"><text id="SvgjsText1061" font-family="微软雅黑" text-anchor="middle" font-size="13px" width="85" fill="#323232" font-weight="400" align="middle" anchor="middle" family="微软雅黑" size="13px" weight="400" font-style="" y="17.05" transform="rotate(0)"><tspan id="SvgjsTspan1062" dy="16" x="85.5"><tspan id="SvgjsTspan1063" style="text-decoration:;">SimpleCookie</tspan></tspan></text></g></g><g id="SvgjsG1064"><path id="SvgjsPath1065" d="M805 304.5L840.75 304.5L840.75 218L876.5 218" stroke="#323232" stroke-width="2" fill="none" marker-end="url(#SvgjsMarker1066)"></path></g><g id="SvgjsG1068" transform="translate(876.5,280)"><path id="SvgjsPath1069" d="M 0 0L 171 0L 171 49L 0 49Z" stroke="#323232" stroke-width="2" fill-opacity="1" fill="#ffffff"></path><g id="SvgjsG1070"><text id="SvgjsText1071" font-family="微软雅黑" text-anchor="middle" font-size="13px" width="76" fill="#323232" font-weight="400" align="middle" anchor="middle" family="微软雅黑" size="13px" weight="400" font-style="" y="14.55" transform="rotate(0)"><tspan id="SvgjsTspan1072" dy="16" x="85.5"><tspan id="SvgjsTspan1073" style="text-decoration:;">SessionDAO</tspan></tspan></text></g></g><g id="SvgjsG1074"><path id="SvgjsPath1075" d="M805 304.5L840.75 304.5L840.75 304.5L876.5 304.5" stroke="#323232" stroke-width="2" fill="none" marker-end="url(#SvgjsMarker1076)"></path></g><g id="SvgjsG1078" transform="translate(579,425)"><path id="SvgjsPath1079" d="M 0 0L 155 0L 155 65L 0 65Z" stroke="#323232" stroke-width="2" fill-opacity="1" fill="#ffffff"></path><g id="SvgjsG1080"><text id="SvgjsText1081" font-family="微软雅黑" text-anchor="middle" font-size="13px" width="89" fill="#323232" font-weight="400" align="middle" anchor="middle" family="微软雅黑" size="13px" weight="400" font-style="" y="22.55" transform="rotate(0)"><tspan id="SvgjsTspan1082" dy="16" x="77.5"><tspan id="SvgjsTspan1083" style="text-decoration:;">RedisManager</tspan></tspan></text></g></g><g id="SvgjsG1084"><path id="SvgjsPath1085" d="M1047.5 304.5L1077.5 304.5L1077.5 395L656.5 395L656.5 425" stroke="#323232" stroke-width="2" fill="none" marker-end="url(#SvgjsMarker1086)"></path></g><g id="SvgjsG1088"><path id="SvgjsPath1089" d="M618 304.5L546 304.5L546 303.5L474 303.5" stroke="#323232" stroke-width="2" fill="none" marker-end="url(#SvgjsMarker1090)"></path></g><g id="SvgjsG1092"><path id="SvgjsPath1093" d="M381.5 330L381.5 457.5L579 457.5" stroke="#323232" stroke-width="2" fill="none" marker-end="url(#SvgjsMarker1094)"></path></g><g id="SvgjsG1096" transform="translate(533,547)"><path id="SvgjsPath1097" d="M 0 0L 247 0L 247 65L 0 65Z" stroke="#323232" stroke-width="2" fill-opacity="1" fill="#ffffff"></path><g id="SvgjsG1098"><text id="SvgjsText1099" font-family="微软雅黑" text-anchor="middle" font-size="13px" width="97" fill="#323232" font-weight="400" align="middle" anchor="middle" family="微软雅黑" size="13px" weight="400" font-style="" y="22.55" transform="rotate(0)"><tspan id="SvgjsTspan1100" dy="16" x="123.5"><tspan id="SvgjsTspan1101" style="text-decoration:;">RedisProperties</tspan></tspan></text></g></g><g id="SvgjsG1102"><path id="SvgjsPath1103" d="M656.5 490L656.5 518.5L656.5 518.5L656.5 547" stroke="#323232" stroke-width="2" fill="none" marker-end="url(#SvgjsMarker1104)"></path></g><g id="SvgjsG1106" transform="translate(331.5,24.999999999999886)"><path id="SvgjsPath1107" d="M 0 0L 100 0L 100 70L 0 70Z" stroke="#323232" stroke-width="2" fill-opacity="1" fill="#ffffff"></path><g id="SvgjsG1108"><text id="SvgjsText1109" font-family="微软雅黑" text-anchor="middle" font-size="13px" width="62" fill="#323232" font-weight="400" align="middle" anchor="middle" family="微软雅黑" size="13px" weight="400" font-style="" y="25.05" transform="rotate(0)"><tspan id="SvgjsTspan1110" dy="16" x="50"><tspan id="SvgjsTspan1111" style="text-decoration:;">shiroFilter</tspan></tspan></text></g></g><g id="SvgjsG1112"><path id="SvgjsPath1113" d="M381.5 94.99999999999989L381.5 129.4999999999999L381.5 129.4999999999999L381.5 163.99999999999994" stroke="#323232" stroke-width="2" fill="none" marker-end="url(#SvgjsMarker1114)"></path></g></svg>